<?xml version="1.0" ?><svg style="enable-background:new 0 0 32 32;" version="1.1" viewBox="0 0 32 32" xml:space="preserve" xmlns="http://www.w3.org/2000/svg" xmlns:xlink="http://www.w3.org/1999/xlink"><style type="text/css">
	.st0{display:none;}
	.st1{fill:none;}
</style><g class="st0" id="grid"/><g id="Layer_2"><g><path d="M12,9.5c2.66,0,5.03,1.59,6.03,4.06l2.78-1.13C19.35,8.83,15.89,6.5,12,6.5c-1.61,0-3.2,0.41-4.6,1.19l1.46,2.62    C9.81,9.78,10.9,9.5,12,9.5z"/><path d="M18.5,16H14v3h3.76c-1.09,2.08-3.26,3.5-5.76,3.5c-3.58,0-6.5-2.92-6.5-6.5c0-1.86,0.8-3.64,2.2-4.88L5.72,8.88    C3.67,10.68,2.5,13.28,2.5,16c0,5.24,4.26,9.5,9.5,9.5c4.19,0,7.75-2.73,9.01-6.5c0.32-0.94,0.49-1.95,0.49-3H18.5z"/></g><polygon points="29,16 27,16 27,14 25,14 25,16 23,16 23,18 25,18 25,20 27,20 27,18 29,18  "/></g></svg>